<svg xmlns="http://www.w3.org/2000/svg" viewBox="0 0 520 170" role="img" aria-label="Boudjebel">
  <defs>
    <linearGradient id="gold" x1="40" y1="40" x2="430" y2="130" gradientUnits="userSpaceOnUse">
      <stop stop-color="#f8d48a"/>
      <stop offset=".45" stop-color="#c58b3d"/>
      <stop offset="1" stop-color="#f1c875"/>
    </linearGradient>
  </defs>
  <rect width="520" height="170" fill="none"/>
  <g fill="url(#gold)">
    <text x="34" y="98" font-family="Georgia, 'Times New Roman', serif" font-size="64" font-weight="800" letter-spacing="1">BOUDJEBEL</text>
    <path d="M272 18c7 42 2 82-21 121 30-21 43-60 38-121h-17Z" opacity=".92"/>
    <path d="M250 35l-88-18 82 31-76 8 76 5-62 28 74-15 15 57 2-63 70 21-57-34 75-8-77-5 48-34-58 24-3-31-7 32Z"/>
    <path d="M217 134c40 14 81 12 121-6" fill="none" stroke="url(#gold)" stroke-width="9" stroke-linecap="round"/>
    <path d="M226 154c35 8 70 7 105-5" fill="none" stroke="url(#gold)" stroke-width="6" stroke-linecap="round" opacity=".85"/>
  </g>
</svg>
