<svg xmlns="http://www.w3.org/2000/svg" viewBox="0 0 620 170" role="img" aria-label="Travel Toko">
  <defs>
    <linearGradient id="blue" x1="0" y1="0" x2="620" y2="170" gradientUnits="userSpaceOnUse">
      <stop stop-color="#38bdf8"/>
      <stop offset="1" stop-color="#2563eb"/>
    </linearGradient>
  </defs>
  <rect width="620" height="170" fill="none"/>
  <circle cx="78" cy="84" r="70" fill="url(#blue)"/>
  <path d="M42 44c17 3 30 2 41-6 9 10 20 14 36 14-9 13-22 19-39 18 5 19 3 36-7 51-4-24-15-42-31-55-9-7-8-16 0-22Z" fill="#fff" opacity=".96"/>
  <path d="M58 116c19-8 37-7 54 3-12 9-27 12-44 8-6-2-10-5-10-11Z" fill="#fff" opacity=".9"/>
  <text x="180" y="72" font-family="Arial, Helvetica, sans-serif" font-size="66" font-weight="300" letter-spacing="16" fill="#2488f2">TRAVEL</text>
  <text x="180" y="140" font-family="Arial, Helvetica, sans-serif" font-size="66" font-weight="300" letter-spacing="13" fill="#2488f2">TOKO</text>
</svg>
