<svg xmlns="http://www.w3.org/2000/svg" viewBox="0 0 128 128" role="img" aria-label="NusaTech Solutions mark">
  <defs>
    <linearGradient id="wave" x1="12" y1="34" x2="112" y2="94" gradientUnits="userSpaceOnUse">
      <stop offset="0" stop-color="#08D9FF"/>
      <stop offset="0.44" stop-color="#2563EB"/>
      <stop offset="0.7" stop-color="#A855F7"/>
      <stop offset="1" stop-color="#FB4FA3"/>
    </linearGradient>
    <filter id="glow" x="-25%" y="-35%" width="150%" height="170%">
      <feGaussianBlur stdDeviation="4" result="blur"/>
      <feColorMatrix in="blur" type="matrix" values="0 0 0 0 .05 0 0 0 0 .75 0 0 0 0 1 0 0 0 .8 0"/>
      <feMerge><feMergeNode/><feMergeNode in="SourceGraphic"/></feMerge>
    </filter>
  </defs>
  <rect width="128" height="128" rx="28" fill="#050816"/>
  <path d="M16 82c29-22 55-30 86-28" fill="none" stroke="#7DD3FC" stroke-width="5" stroke-linecap="round" opacity=".75"/>
  <path d="M24 70c23 3 36-48 63-47 27 1 31 55 55 49 16-4 24-24 41-33" transform="translate(-32 10)" fill="none" stroke="url(#wave)" stroke-width="18" stroke-linecap="round" filter="url(#glow)"/>
  <path d="M95 34l9 3 2-9 2 9 9-3-7 6 6 8-9-4-5 9v-10l-10-1 9-5z" fill="#fff" filter="url(#glow)"/>
</svg>
